<?xml version="1.0" encoding="UTF-8"?>
<svg version="1.1" viewBox="0 0 133 89" xmlns="http://www.w3.org/2000/svg" xmlns:cc="http://creativecommons.org/ns#" xmlns:dc="http://purl.org/dc/elements/1.1/" xmlns:rdf="http://www.w3.org/1999/02/22-rdf-syntax-ns#">
<metadata>
<rdf:RDF>
<cc:Work rdf:about="">
<dc:format>image/svg+xml</dc:format>
<dc:type rdf:resource="http://purl.org/dc/dcmitype/StillImage"/>
<dc:title/>
</cc:Work>
</rdf:RDF>
</metadata>
<g>
<path transform="translate(-33.25,17.75)" d="m161.25 23.625a61.75 37.5 0 1 1-123.5 0 61.75 37.5 0 1 1 123.5 0z" fill="#fff" fill-rule="evenodd" stroke="#000" stroke-width="1.5"/>
<path d="m27.75 11.875c18.652 11.033 59.3 10.505 76.375 0" fill="none" stroke="#334166" stroke-width="1px"/>
<path d="m27.75 70.689c18.652-11.033 59.3-10.505 76.375 0" fill="none" stroke="#334166" stroke-width="1px"/>
<path d="m4.2537 41.569h124.03" fill="none" stroke="#334166" stroke-width="1px"/>
<path d="m11.314 58.441c23.069-10.079 89.714-7.9695 109.78 0" fill="none" stroke="#334166" stroke-width="1px"/>
<path d="m11.314 24.123c23.069 10.079 89.714 7.9695 109.78 0" fill="none" stroke="#334166" stroke-width="1px"/>
<path d="m61.653 33.427c-9.8119 3.9985-16.868 13.401-11.892 22.72 18.381 12.154 6.2044 14.908-3.6814 15.253v10.05h40.959v-10.477c-18.286-0.64604-15.33-9.0589-1.92-15.04l-0.08958-3.8097c-6.2377-1.799-4.2289-7.9525-2.3637-13.15 4.9163-16.166-2.0518-24.16-18.88-26.133-2.5388-1.6074-3.6556-3.0744-5.7066-5.0133v6.0799c-2.0945 0.32318-4.5779 1.5728-5.9199 3.4133-2.0377 2.7944-2.4101 4.4199-11.947 11.733-1.4735 3.0094 1.2009 5.7453 3.9466 5.7599l10.987-2.88c2.586-0.96619 5.3955-0.40136 6.5066 1.4933z" fill="#334166" stroke="#000" stroke-width=".5"/>
<path d="m52.05 57.75c0.46717 0.33776 0.89633 0.67826 1.3125 1h26.513c0.52184-0.3365 1.0708-0.66984 1.6562-1z" fill="#7f7f7f" stroke="#7f7f7f" stroke-width=".168"/>
<path d="m50.781 56.844c0.50447 0.34579 0.98366 0.66997 1.4375 1h29.156c0.59459-0.33929 1.2165-0.67014 1.875-1h-32.469z" fill="#fff" stroke="#fff" stroke-width=".168"/>
<path d="m49.656 55.938c0.03692 0.07182 0.02226 0.14694 0.0606 0.21875 0.41136 0.27202 0.80638 0.51857 1.1875 0.78125h32.182c0.66502-0.33761 1.3101-0.67511 2.0385-1z" fill="#7f7f7f" stroke="#7f7f7f" stroke-width=".168"/>
<path d="m-14.75-13.25c-0.1423 0-0.25 0.1077-0.25 0.25v127.5c0 0.1423 0.1077 0.25 0.25 0.25h164.75c0.1423 0 0.25-0.1077 0.25-0.25v-127.5c0-0.1423-0.1077-0.25-0.25-0.25h-164.75zm81 17.125c34.104 0 61.75 16.789 61.75 37.5s-27.646 37.5-61.75 37.5c-34.104 0-61.75-16.789-61.75-37.5s27.646-37.5 61.75-37.5z" fill="#334166" stroke="#334166" stroke-width=".5"/>
<path d="m49.1 74.018h7.9991v0.92808h-6.0988v4.0217h6.0988v1.0165h-6.0546v4.9939h-1.9887z" fill="#fff"/>
<path d="m57.979 73.974h6.0715v1.0775h-1.9953v8.9028h1.9873v1.0939h-6.0871v-1.0863h2.0495v-8.9825h-2.0219z" fill="#fff"/>
<path d="m65 73.938v11.031h6.4688c1.9913-0.10391 3.1989-2.4839 3.1989-5.8529 0.07751-3.4413-1.3327-5.1599-3.1989-5.1471zm6.0464 1.0625c2.4767 2.4621 1.8785 7.1644 0 8.9688h-4.0464v-8.9375z" fill="#fff"/>
<path d="m76 74h8v1h-5.9688v3.9579h6.0294v1.0109h-6.0294v4h5.9688v1.0625h-8z" fill="#fff"/>
</g>
</svg>
