<?xml version="1.0" encoding="UTF-8"?>
<svg enable-background="new 0 0 640 480" version="1.1" viewBox="0 0 640 480" xml:space="preserve" xmlns="http://www.w3.org/2000/svg">
<style type="text/css">
	.st0{fill-rule:evenodd;clip-rule:evenodd;fill:#FFFFFF;}
	.st1{fill-rule:evenodd;clip-rule:evenodd;}
	.st2{fill-rule:evenodd;clip-rule:evenodd;fill:#009900;}
	.st3{fill-rule:evenodd;clip-rule:evenodd;fill:#FF0000;}
</style>
<rect class="st0" y="160" width="640" height="160"/>
<rect class="st1" y="320" width="640" height="160"/>
<path class="st2" d="M0,0h640v160H0V0z"/>
<path class="st3" d="m155.1 281-28.8-20.9-28.7 21.1 10.7-34.2-28.7-21.2 35.4-0.3 11-34.1 11.3 34h35.4l-28.5 21.5 10.9 34.2v-0.1zm387.7 0-28.8-20.9-28.7 21.1 10.7-34.2-28.6-21.2 35.4-0.3 11-34.1 11.2 34h35.4l-28.5 21.4 11 34.2h-0.1z"/>
<polygon class="st3" points="349 281 320.1 260.1 291.5 281.2 302.1 247 273.5 225.8 308.8 225.5 319.8 191.4 331.1 225.4 366.5 225.4 338 246.9 349 281.1"/>
</svg>
