<?xml version="1.0" encoding="UTF-8"?>
<svg viewBox="0 0 640 480" xmlns="http://www.w3.org/2000/svg" xmlns:xlink="http://www.w3.org/1999/xlink">
<path d="M0 320h640v160H0z" fill="#1eb53a"/>
<path d="M0 0h640v160H0z" fill="#0099b5"/>
<path d="M0 153.6h640v172.8H0z" fill="#ce1126"/>
<path d="M0 163.2h640v153.6H0z" fill="#fff"/>
<circle cx="134.4" cy="76.8" r="57.6" fill="#fff"/>
<circle cx="153.6" cy="76.8" r="57.6" fill="#0099b5"/>
<g transform="matrix(1.92 0 0 1.92 261.1 122.9)" fill="#fff">
<g id="e">
<g id="d">
<g id="c">
<g id="b">
<path id="a" d="M0-6L-1.9-.3 1 .7"/>
<use transform="scale(-1 1)" width="100%" height="100%" xlink:href="#a"/>
</g>
<use transform="rotate(72)" width="100%" height="100%" xlink:href="#b"/>
</g>
<use transform="rotate(-72)" width="100%" height="100%" xlink:href="#b"/>
<use transform="rotate(144)" width="100%" height="100%" xlink:href="#c"/>
</g>
<use y="-24" width="100%" height="100%" xlink:href="#d"/>
<use y="-48" width="100%" height="100%" xlink:href="#d"/>
</g>
<use x="24" width="100%" height="100%" xlink:href="#e"/>
<use x="48" width="100%" height="100%" xlink:href="#e"/>
<use x="-48" width="100%" height="100%" xlink:href="#d"/>
<use x="-24" width="100%" height="100%" xlink:href="#d"/>
<use x="-24" y="-24" width="100%" height="100%" xlink:href="#d"/>
</g>
</svg>
