<?xml version="1.0" encoding="UTF-8"?>
<svg width="69.749mm" height="52.312mm" version="1.1" viewBox="0 0 69.749 52.312" xmlns="http://www.w3.org/2000/svg">
<defs>
<clipPath id="a">
<rect width="640" height="480" fill="#231f20" fill-rule="evenodd" stroke-width="4.0252" style="paint-order:markers stroke fill"/>
</clipPath>
</defs>
<g transform="translate(-43.415 -53.25)">
<g transform="matrix(.10898 0 0 .10898 43.415 53.25)" clip-path="url(#a)">
<rect width="800" height="240" fill="#d21034" stroke-width=".8421"/>
<rect y="240" width="800" height="240" fill="#009543" stroke-width=".8421"/>
<path d="m0 0 465.53 240-465.53 240z" stroke-width=".8421"/>
<rect y="197.05" width="800" height="85.895" stroke-width=".8421"/>
<path d="m0 34.107 399.37 205.89-399.37 205.89z" fill="#fdce12" stroke-width=".8421"/>
<rect y="227.37" width="800" height="25.263" fill="#fdce12" stroke-width=".8421"/>
<path d="m0 62.53 344.24 177.47-344.24 177.47z" stroke-width=".8421"/>
<path d="m97.247 285.91v27.348c23.792 0 70.484-18.232 70.484-76.931 0-58.7-49.805-69.595-64.703-69.595-14.897 0-60.923 10.673-60.923 58.7 0 48.027 45.137 52.474 54.03 52.474 8.8935 0 42.246-8.0051 38.467-44.025 0 10.228-11.562 31.796-35.799 31.796-24.236 0-39.355-18.011-39.355-35.798 0-17.789 14.675-41.58 40.244-41.58 25.57 0 44.247 22.679 44.247 45.581 0 22.902-18.009 52.029-46.692 52.029z" fill="#fdce12" stroke-width=".8421"/>
<g transform="scale(.84211)" fill="#fdce12">
<path d="m90.728 297.24 1.683 1.089s13.367-30.496 49.309-52.18c-4.555 2.475-28.615 14.456-50.992 51.091z" stroke="#fdce12"/>
<path d="m94.193 292s-4.158-8.515-0.495-12.277c3.664-3.763 1.981 10 1.981 10l1.584-2.277s-2.476-10.397 0.297-12.575c2.772-2.178 1.386 10 1.386 10l1.683-2.178s-1.782-10.099 0.891-11.981c2.674-1.881 0.991 9.506 0.991 9.506l1.98-2.278s-1.485-9.604 1.782-11.881c3.268-2.278 0.396 9.109 0.396 9.109l2.178-2.376s-0.99-8.813 1.783-10.793c2.772-1.98 0.396 8.317 0.396 8.317l1.98-2.079s-0.594-8.218 2.079-10.099c2.674-1.882 0.198 7.822 0.198 7.822l2.08-1.981s-0.495-8.218 2.871-9.802-0.594 7.723-0.594 7.723l2.277-1.98s0.693-9.604 3.565-10.496c2.871-0.891-1.287 8.516-1.287 8.516l2.079-1.684s1.089-8.218 4.257-9.208c3.169-0.99-1.98 7.525-1.98 7.525l2.079-1.584s2.278-8.218 5.248-9.109c2.971-0.891-3.069 7.723-3.069 7.723l1.98-1.386s3.267-7.427 5.941-7.922c2.673-0.495-2.971 6.139-2.971 6.139l2.476-1.485s4.257-7.723 5.743-5.347c1.485 2.377-5.941 5.842-5.941 5.842l-2.476 1.386s9.011-4.257 10.1-2.079-12.377 3.565-12.377 3.565l-2.178 1.485s9.01-2.476 7.921-0.198c-1.089 2.277-10 1.782-10 1.782l-2.08 1.485s9.01-2.178 7.822-0.099-10 1.881-10 1.881l-2.178 1.783s8.812-2.278 7.525 0.396c-1.288 2.673-11.288 2.574-11.288 2.574l-2.475 2.277s9.307-3.168 8.515-0.693c-0.792 2.476-11.387 3.763-11.387 3.763l-2.376 2.376s10-3.366 7.03-0.297c-2.97 3.07-10.198 3.862-10.198 3.862l-2.872 3.465s9.902-5.941 8.515-2.574c-1.386 3.366-11.089 5.644-11.089 5.644l-1.98 2.376s8.911-5.149 8.02-2.277c-0.891 2.871-10.397 5.94-10.397 5.94l-1.584 2.179s10.495-6.238 9.604-3.07c-0.891 3.169-10.891 5.446-10.891 5.446l-1.287 1.98s9.703-5.544 9.802-2.871-11.387 5.347-11.387 5.347z"/>
</g>
<g transform="matrix(-.84211 0 0 .84211 200.84 -1.3333e-5)" fill="#fdce12">
<path d="m90.728 297.24 1.683 1.089s13.367-30.496 49.309-52.18c-4.555 2.475-28.615 14.456-50.992 51.091z" stroke="#fdce12"/>
<path d="m94.193 292s-4.158-8.515-0.495-12.277c3.664-3.763 1.981 10 1.981 10l1.584-2.277s-2.476-10.397 0.297-12.575c2.772-2.178 1.386 10 1.386 10l1.683-2.178s-1.782-10.099 0.891-11.981c2.674-1.881 0.991 9.506 0.991 9.506l1.98-2.278s-1.485-9.604 1.782-11.881c3.268-2.278 0.396 9.109 0.396 9.109l2.178-2.376s-0.99-8.813 1.783-10.793c2.772-1.98 0.396 8.317 0.396 8.317l1.98-2.079s-0.594-8.218 2.079-10.099c2.674-1.882 0.198 7.822 0.198 7.822l2.08-1.981s-0.495-8.218 2.871-9.802-0.594 7.723-0.594 7.723l2.277-1.98s0.693-9.604 3.565-10.496c2.871-0.891-1.287 8.516-1.287 8.516l2.079-1.684s1.089-8.218 4.257-9.208c3.169-0.99-1.98 7.525-1.98 7.525l2.079-1.584s2.278-8.218 5.248-9.109c2.971-0.891-3.069 7.723-3.069 7.723l1.98-1.386s3.267-7.427 5.941-7.922c2.673-0.495-2.971 6.139-2.971 6.139l2.476-1.485s4.257-7.723 5.743-5.347c1.485 2.377-5.941 5.842-5.941 5.842l-2.476 1.386s9.011-4.257 10.1-2.079-12.377 3.565-12.377 3.565l-2.178 1.485s9.01-2.476 7.921-0.198c-1.089 2.277-10 1.782-10 1.782l-2.08 1.485s9.01-2.178 7.822-0.099-10 1.881-10 1.881l-2.178 1.783s8.812-2.278 7.525 0.396c-1.288 2.673-11.288 2.574-11.288 2.574l-2.475 2.277s9.307-3.168 8.515-0.693c-0.792 2.476-11.387 3.763-11.387 3.763l-2.376 2.376s10-3.366 7.03-0.297c-2.97 3.07-10.198 3.862-10.198 3.862l-2.872 3.465s9.902-5.941 8.515-2.574c-1.386 3.366-11.089 5.644-11.089 5.644l-1.98 2.376s8.911-5.149 8.02-2.277c-0.891 2.871-10.397 5.94-10.397 5.94l-1.584 2.179s10.495-6.238 9.604-3.07c-0.891 3.169-10.891 5.446-10.891 5.446l-1.287 1.98s9.703-5.544 9.802-2.871-11.387 5.347-11.387 5.347z"/>
</g>
</g>
</g>
</svg>
