<svg
   xmlns="http://www.w3.org/2000/svg"
   width="1000"
   height="701.615"
   viewBox="0 0 1000 701.615"
   fill="none">
  <path
     fill-rule="evenodd"
     clip-rule="evenodd"
     d="m 387.05,127.23951 c -2.15807,2.87581 -4.31613,5.03226 -6.475,7.18872 -61.87016,-12.93952 -134.53226,-35.224198 -188.48871,-61.103633 0.71936,-0.359436 1.25887,-0.71879 1.79839,-1.078226 v -8.1e-5 c 0.53951,-0.359435 1.07903,-0.718871 1.79839,-1.078306 3.59758,-2.156613 7.19435,-4.313226 10.79193,-5.750968 1.07903,-0.359435 1.97823,-0.898548 2.87742,-1.437742 0.89919,-0.539113 1.79839,-1.078306 2.87742,-1.437742 l 12.95,-6.469758 c 0.71935,-0.359435 1.61855,-0.718871 2.51774,-1.078306 0.89919,-0.359436 1.79839,-0.718871 2.51774,-1.078307 3.12984,-1.56371 6.25968,-2.749516 9.11533,-3.831371 1.08306,-0.410161 2.12661,-0.805483 3.11532,-1.200725 2.77661,-0.555 5.125,-1.538388 7.70645,-2.619436 0.76209,-0.319274 1.54516,-0.647097 2.36532,-0.974919 2.87742,-1.437742 5.75565,-2.875484 8.63307,-3.594355 C 312.22984,22.284919 366.1871,10.064193 421.58226,4.3132097 l 21.58306,-2.1566048 c 2.15807,-0.718871 5.03629,-0.718871 7.19436,-0.718871 2.51774,0 5.03548,-0.1797178 7.55403,-0.3594274 2.51774,-0.17971779 5.03548,-0.35943795 7.55403,-0.35943795 C 468.34516,0 471.94193,0 474.82016,0 h 18.70484 4.31613 0.72016 c 25.17984,0 50.35968,1.4377339 74.1,4.3132097 1.43952,0.718871 2.15887,0.718871 3.59758,0.718871 7.19436,0.7188709 13.66936,1.4377338 20.14355,2.1566048 0.9879,0 1.975,0.084645 2.93387,0.1667984 1.83468,0.1572661 3.5621,0.3053951 4.97984,-0.1667984 2.51774,0.3593064 4.85484,0.7186048 7.19194,1.0779274 l 0.002,3.226e-4 c 2.3379,0.3594355 4.67661,0.718871 7.19435,1.0783871 l 10.79113,2.1566124 c 1.79919,0.359436 3.77742,0.718872 5.75565,1.078226 1.97822,0.359436 3.95645,0.718871 5.75564,1.078307 1.79839,0.359435 3.77662,0.718871 5.75484,1.078306 1.97903,0.359436 3.95725,0.718871 5.75564,1.078307 3.59758,1.437742 7.19436,2.156612 10.79114,2.875484 1.79919,0.359435 3.59758,0.898628 5.39596,1.437742 1.79839,0.539112 3.59678,1.078306 5.39597,1.437742 2.15807,0.71887 4.13629,1.258064 6.11451,1.797177 1.97903,0.539193 3.95726,1.078306 6.11533,1.797177 l 8.63306,2.156613 c 3.43548,0.858145 6.87017,1.972339 10.15242,3.037016 2.21694,0.719033 4.36452,1.415484 6.39436,1.995081 0.71935,0.359436 1.25886,0.539113 1.79839,0.718871 0.53951,0.179677 1.07983,0.359435 1.79919,0.718871 38.12903,12.220726 71.94193,28.035806 99.99677,43.850968 0.3629,0.359435 0.72581,0.539112 1.08065,0.71887 0.3629,0.179678 0.71774,0.359436 1.08064,0.718872 0.36291,0.359435 0.71775,0.539112 1.08064,0.71887 0.35485,0.179678 0.71774,0.359436 1.08065,0.718872 -52.52096,28.754433 -121.58629,50.320563 -189.2121,60.385083 -0.50725,-1.15242 -1.04113,-2.47581 -1.63225,-3.94194 -8.62903,-21.38871 -29.43388,-72.958547 -157.36049,-62.194111 l -20.14354,-48.164194 -20.86372,7.18871 5.0363,48.883306 c 0,0 -39.56855,16.533871 -52.51774,25.160489 0.71935,5.03145 2.87742,13.65806 4.31612,19.40886 z m -44.70807,47.77984 c -18.26854,19.01291 -39.9129,41.53872 -46.65886,51.4242 C 172.6621,207.75323 100,186.90565 65.467581,174.68549 c 0.719354,-1.07823 1.438709,-1.97662 2.158064,-2.87581 h 1.62e-4 1.61e-4 c 0.719355,-0.89839 1.43879,-1.79678 2.158145,-2.875 0.719355,-0.71936 1.43871,-1.61775 2.158064,-2.51613 h 1.62e-4 c 0.719435,-0.8992 1.438871,-1.79758 2.158306,-2.51613 1.43879,-1.43791 2.877662,-3.05565 4.316452,-4.67258 1.438871,-1.61774 2.878064,-3.23549 4.316774,-4.67258 0.719355,-1.43791 2.158064,-2.87581 3.596774,-4.31371 1.43871,-1.4371 3.057258,-2.875 4.675806,-4.3129 h 8.07e-4 v 0 c 1.618549,-1.43791 3.237097,-2.87581 4.675807,-4.31372 L 100,137.30403 c 1.79758,-1.4371 3.59516,-3.05403 5.39274,-4.67016 h 8.1e-4 v -8e-4 0 0 h 8e-4 v -8.1e-4 0 0 h 8.1e-4 v 0 -8.1e-4 0 c 1.79919,-1.61774 3.59758,-3.23468 5.39597,-4.67258 l 2.87822,-2.8758 c 15.82662,-13.65807 32.37339,-25.16049 48.20081,-35.224199 0.35968,0 0.53952,-0.179839 0.71935,-0.359678 0.17984,-0.179838 0.35968,-0.359677 0.72017,-0.359677 l 6.47419,-4.312903 c 26.61855,12.220968 101.43871,44.570157 197.84194,63.260487 -4.58549,5.39032 -14.32742,15.52903 -25.28388,26.93225 z m 295.06775,65.08226 c 144.60483,-7.90726 261.87258,-37.38064 306.47742,-53.19596 -0.72581,-0.71855 -1.25807,-1.43791 -1.79839,-2.15646 -0.54032,-0.71935 -1.08064,-1.4379 -1.79839,-2.15645 -0.3629,-0.35967 -0.72581,-0.89919 -1.08064,-1.4379 -0.36291,-0.53952 -0.71775,-1.07823 -1.08065,-1.43791 l -10.79032,-12.93951 -0.71774,-0.71935 c -3.59678,-4.3121 -7.19355,-7.90565 -11.50807,-12.21775 v -8.1e-4 l -0.008,-0.002 -3.59677,-3.59435 -8.62904,-8.62662 c -2.16129,-2.15644 -4.31452,-4.31289 -6.4758,-5.7508 -1.08065,-1.07662 -2.33872,-2.15403 -3.58872,-3.23064 v 0 h -0.008 v -8.1e-4 0 -8e-4 0 0 -8.1e-4 0 -8.1e-4 -8e-4 -8.1e-4 0 -8.1e-4 0 0 -8e-4 0 -8.1e-4 h -0.008 v 0 -8.1e-4 c -1.25807,-1.07742 -2.51613,-2.15403 -3.58871,-3.23145 -1.08065,-1.07823 -2.16129,-1.97662 -3.24194,-2.875 -1.07258,-0.8992 -2.15323,-1.79758 -3.23387,-2.87581 v -0.002 c -4.31452,-3.59435 -8.6371,-7.1879 -13.66936,-10.78145 l -0.71774,-0.71855 C 858.27437,104.23471 848.20179,97.045997 838.12921,91.295191 812.95179,104.95406 745.32357,136.5839 634.53244,153.11777 c 11.51048,28.03629 2.87742,86.98307 2.87742,86.98307 z m -179.85565,21.56613 c 0,0 -59.7121,29.47419 -86.33064,75.48145 H 0 c 0,-3.59435 0,-6.47016 0.71942419,-8.62661 v -0.71855 c 0.35972091,-2.8758 0.71943871,-5.57177 1.07915651,-8.26693 0.3597096,-2.69597 0.7194112,-5.39194 1.0791209,-8.26694 v -0.71935 c 0.3145081,-1.88549 0.7665161,-3.90807 1.2358065,-6.00888 0.6041693,-2.70403 1.2369758,-5.53628 1.641887,-8.36854 0.7194275,-0.71855 0.7194275,-1.4371 0.7194275,-2.15646 0.7194193,-4.3129 1.4388467,-8.62661 2.8776774,-12.93951 v -1.43791 c 0.719435,-2.15644 1.438871,-4.49274 2.158307,-6.82902 l 3.22e-4,-8.1e-4 c 0.719355,-2.33629 1.438629,-4.67258 2.157903,-6.82823 7.194275,-22.28548 17.985645,-45.28871 34.532419,-69.01129 0.359678,-0.35967 0.539517,-0.71935 0.719436,-1.07823 0.179839,-0.35967 0.359678,-0.71935 0.719436,-1.07903 0.267822,-0.26693 0.435887,-0.63467 0.615726,-1.02741 0.303064,-0.6621 0.639354,-1.39678 1.5425,-1.84759 62.590161,20.12823 164.028871,43.13226 246.762741,53.91533 37.21936,60.18145 73.16613,30.67822 92.27178,14.99758 1.20564,-0.98952 2.34354,-1.92339 3.41128,-2.77742 23.74114,1.4379 63.30968,3.59435 63.30968,3.59435 z m 160.43146,75.48145 H 1000 c 0,-2.875 0,-6.46935 -0.71773,-9.34516 -1.44352,-22.28468 -6.47582,-45.28871 -15.11292,-68.29274 v -0.71855 c -1.43548,-4.3129 -3.59677,-9.34516 -5.75,-13.65887 -0.3629,-0.35887 -0.54032,-0.89838 -0.71774,-1.4371 -0.18548,-0.53951 -0.3629,-1.07822 -0.7258,-1.4379 -0.74194,-1.48548 -1.39516,-2.88548 -2.03226,-4.22903 v -0.002 0 -0.008 l -0.008,-0.007 v -0.006 -0.005 c -1.20162,-2.54919 -2.29839,-4.89758 -3.70968,-7.24596 l -2.1613,-4.31291 c -1.03225,-2.5879 -2.44354,-4.80404 -3.95967,-7.18306 v -8.1e-4 c -0.58871,-0.925 -1.19355,-1.87419 -1.79839,-2.87984 -0.71775,-1.07903 -1.25806,-2.15726 -1.79838,-3.23549 v -8e-4 c -0.54033,-1.07823 -1.08065,-2.15565 -1.79839,-3.23387 -0.71775,-0.71855 -0.71775,-1.43791 -0.71775,-1.43791 -1.13709,0.32823 -2.41128,0.70243 -3.8387,1.11855 -32.87904,9.6113 -142.70968,41.7121 -320.62097,51.35888 -1.91371,9.5621 -4.45081,19.64273 -6.97984,29.69112 -4.12581,16.39114 -8.22903,32.69356 -9.56693,46.50888 z M 0,356.55887 h 359.7121 c -7.91371,15.09597 -14.38871,49.60162 -12.9492,66.85484 -181.53064,16.12339 -268.183303,44.1758 -301.062981,54.82016 -2.302984,0.74516 -4.342096,1.40564 -6.131612,1.97016 -0.719356,0 -0.719356,-0.71854 -0.719356,-0.71854 0,-0.71936 -0.719435,-2.15646 -1.43887,-2.87581 -1.079194,-1.79678 -2.158307,-3.77419 -3.2375,-5.75081 l -5.65e-4,-8e-4 c -1.078871,-1.97662 -2.157823,-3.95323 -3.236774,-5.75 l -2.158226,-4.31372 C 26.61871,457.2 24.460403,452.8871 22.302177,448.57419 c -0.359758,-0.35968 -0.539596,-0.71935 -0.719435,-1.07822 -0.179839,-0.35968 -0.359758,-0.71936 -0.719435,-1.07904 -1.079114,-2.51532 -1.978388,-5.03144 -2.877662,-7.54758 -0.899274,-2.51612 -1.798629,-5.03225 -2.877742,-7.54838 v -0.71855 c -0.613145,-2.14435 -1.356935,-4.28871 -2.12008,-6.48952 -1.027581,-2.96209 -2.090162,-6.0258 -2.915888,-9.3258 v -0.71855 c -1.4388705,-4.31371 -2.8776931,-9.34597 -4.3165399,-14.37742 0,-0.35968 -0.1798548,-0.8992 -0.3597096,-1.4379 C 5.2158307,397.71371 5.0359677,397.175 5.0359677,396.81532 4.67625,395.01855 4.3165323,393.04113 3.9568145,391.06451 3.5971049,389.0871 3.2374032,387.11049 2.8777016,385.31371 2.1582742,383.15645 1.4388468,380.28145 1.4388468,378.125 c 0,-1.4379 -0.1798549,-2.87581 -0.3597097,-4.31371 -0.17985484,-1.4371 -0.35971291,-2.875 -0.35971291,-4.3129 0,-1.79758 -0.17985645,-3.41452 -0.3597129,-5.03226 C 0.17985565,362.84919 0,361.23145 0,359.43387 Z m 615.82742,0 c -2.87823,30.91129 10.79113,57.50968 19.42419,68.29274 172.18388,15.82823 286.34516,50.7629 316.60323,60.02258 l 1.58871,0.4871 1.01613,0.30968 0.93548,0.28387 c 8.6371,-12.93952 17.98387,-30.19194 26.62097,-50.32016 0,-0.71936 0,-0.71936 0.71774,-1.43791 v -0.002 c 1.43548,-3.59354 2.87903,-7.1879 3.59678,-10.78145 0.40322,-0.80725 0.58064,-1.61452 0.79032,-2.5492 0.15322,-0.72983 0.33064,-1.53709 0.64516,-2.48305 0.7258,-2.87581 1.44355,-5.75081 2.87903,-8.62662 0.36291,-1.4371 0.71774,-2.69516 1.08065,-3.95322 0.3629,-1.25807 0.71774,-2.51613 1.08064,-3.95404 0.35484,-1.07823 0.54032,-2.15645 0.71774,-3.23468 0.17742,-1.07822 0.36291,-2.15725 0.71774,-3.23548 1.44356,-5.03145 2.16126,-10.06371 2.87909,-15.09596 v -1.43791 c 0.71773,-5.03225 1.44352,-10.78306 1.44352,-15.81532 v -2.15646 -5.03145 c -12.23389,0.71856 -368.34922,0.71856 -382.73712,0.71856 z m 24.46048,125.08306 c 13.66855,-15.09596 6.4742,-36.66209 6.4742,-36.66209 126.55403,9.36693 253.10887,44.26613 291.49597,54.85161 2.85483,0.7879 5.2258,1.44113 7.06451,1.93871 -0.35484,0.71935 -0.89516,1.25807 -1.43548,1.79758 -0.54033,0.53871 -1.08065,1.07823 -1.44355,1.79677 -0.71774,2.15646 -2.15323,3.59436 -3.59678,5.03226 v 0 c -1.43548,1.79678 -2.87903,3.41452 -4.31451,5.03226 -1.43549,1.61694 -2.87903,3.23468 -4.31452,5.03146 l -4.32258,4.3137 c -1.43548,1.4371 -2.69355,2.8742 -3.95161,4.3121 v 8.1e-4 0.002 c -1.25806,1.43711 -2.51613,2.8742 -3.95968,4.31211 l -6.4758,6.46935 -6.47581,6.47016 c -1.43549,1.07822 -2.69355,2.33629 -3.95161,3.59436 -1.25807,1.25806 -2.51614,2.51613 -3.95968,3.59435 v 0 c -2.16129,2.15646 -4.31452,4.3129 -7.19355,6.46935 -1.08065,1.07823 -2.16129,1.97743 -3.23387,2.87581 -1.08065,0.89839 -2.16129,1.79677 -3.24194,2.875 -3.59677,3.59435 -7.19354,6.47016 -11.50806,9.34597 l -2.16129,2.15645 c -10.07258,7.90726 -20.86291,15.09597 -31.65323,21.56613 -0.71774,0.35887 -1.25806,0.71855 -1.79838,1.07822 -0.54033,0.35888 -1.08065,0.71855 -1.79839,1.07823 l -4.31452,2.15646 c -3.91935,-1.50565 -8.51613,-3.34275 -13.75806,-5.43711 v -0.002 C 771.65,579.78629 679.73387,543.05403 561.87016,533.40081 c 12.5,-17.4871 53.77742,-23.0371 72.88791,-25.60726 2.88709,-0.3879 5.26854,-0.70806 6.96854,-0.99113 V 487.39274 H 356.83468 v 19.40968 c 0,0 60.43145,0.71855 75.53951,25.16048 -163.30968,13.65807 -248.20161,66.13549 -258.99274,73.3242 -2.15887,-0.71855 -4.31694,-2.15645 -6.475,-3.59436 -1.07822,-0.71774 -1.97661,-1.25725 -2.8758,-1.79597 l -0.002,-8e-4 -0.002,-0.002 c -0.89838,-0.5387 -1.79758,-1.07742 -2.8758,-1.79596 l -12.9492,-8.62581 c -0.71935,-0.35968 -1.25887,-0.71935 -1.79919,-1.07903 -0.53952,-0.35887 -1.07903,-0.71855 -1.79839,-1.07823 l -8e-4,-8.1e-4 c -4.31613,-2.875 -8.63226,-5.75 -12.94839,-9.34435 -1.43952,-1.4379 -2.15887,-2.15645 -3.59758,-2.875 -2.15726,-1.79677 -4.13549,-3.41451 -6.11371,-5.03145 l -8.1e-4,-8.1e-4 c -1.97904,-1.61774 -3.95725,-3.23467 -6.11532,-5.03225 -0.71935,-0.35968 -1.25887,-0.89839 -1.79839,-1.43791 -0.53952,-0.5387 -1.07984,-1.07823 -1.79919,-1.4379 -3.59677,-2.875 -7.91371,-6.46935 -11.51049,-10.06371 -0.50161,-1.00242 -1.353221,-1.65564 -2.066124,-2.20242 -0.309677,-0.2379 -0.593549,-0.45564 -0.811291,-0.67339 -4.316935,-3.59435 -8.633065,-7.90725 -12.230645,-11.50161 l -1.43871,-1.4379 c -4.316531,-4.31291 -8.633064,-8.62662 -12.230242,-12.93951 -2.992338,-2.99033 -5.639031,-6.32581 -8.179596,-9.52742 l -0.0011,-0.002 h -3.22e-4 l -0.0012,-0.002 c -1.123306,-1.41613 -2.225887,-2.80565 -3.328549,-4.12742 -1.438789,-1.43791 -2.158225,-2.15726 -2.877661,-3.59516 l -6.474839,-8.6258 c 19.424517,-7.18872 128.776619,-43.13227 297.841939,-55.35323 1.43871,18.69032 7.19435,39.5379 7.19435,39.5379 z m -85.61129,67.57339 c -1.43871,7.18871 -0.71935,21.56613 12.9492,30.91129 7.9137,5.75162 17.26612,8.62662 28.77742,10.06452 l 0.002,8e-4 c 7.19354,0.71856 14.38709,1.4371 23.7387,1.4371 5.11453,0 9.09275,-0.14193 13.51291,-0.3 h 8.1e-4 0.002 v 0 c 5.52662,-0.19677 11.74355,-0.41935 21.73548,-0.41935 v 80.51371 c 26.61855,-5.75081 53.95645,-14.37742 80.57581,-23.72258 0,0 0.71935,0 0.71935,-0.71936 3.2371,-1.4371 6.65403,-2.69516 10.07098,-3.95322 3.41773,-1.25807 6.83467,-2.51613 10.07257,-3.95404 h 0.71936 c 13.66935,-5.7508 26.61854,-11.50161 38.12984,-17.97177 0.38548,-0.19274 0.71935,-0.38549 1.02902,-0.56371 0.84678,-0.48871 1.51452,-0.8742 2.56775,-0.8742 1.07903,-0.35886 2.15806,-0.89838 3.23709,-1.43709 1.07904,-0.53952 2.15888,-1.07823 3.23791,-1.43791 -2.87742,-1.4379 -109.35242,-54.63386 -251.07903,-67.57419 z m -360.79193,69.37097 c -1.07903,-0.53871 -2.15807,-1.07822 -3.2371,-1.79678 43.16532,-29.47419 130.21532,-62.54193 248.92097,-70.44919 0.71935,5.03145 2.15806,24.44113 -12.95,34.50565 -8.63306,5.7508 -25.8992,8.62661 -43.16532,9.34516 -23.74113,1.4379 -48.20162,0 -48.20162,0 v 81.9508 c -0.94596,-0.31532 -1.75403,-0.49193 -2.48468,-0.65242 -0.93548,-0.20483 -1.74274,-0.38144 -2.5508,-0.78548 -2.87823,-0.71854 -5.75564,-1.4371 -7.91371,-2.15645 -3.66452,-0.81371 -7.09839,-1.85726 -10.43226,-2.87097 l -0.002,-8e-4 c -2.55645,-0.77662 -5.05404,-1.5363 -7.55162,-2.16049 -0.36047,0 -0.72016,-0.17903 -1.07983,-0.35887 -0.35968,-0.17984 -0.71936,-0.35968 -1.07903,-0.35968 -37.40968,-11.50161 -72.6613,-25.16048 -102.15807,-40.9758 -0.55,-0.2742 -0.99435,-0.44355 -1.37419,-0.58871 -0.61451,-0.23468 -1.05888,-0.40403 -1.50323,-0.84839 -1.07984,-0.71936 -2.15887,-1.25806 -3.2379,-1.79758 z m 175.17903,-4.67419 h 52.51774 v 15.81532 H 388.4879 v 19.40968 h 30.93549 v 15.81451 H 388.4879 v 34.50565 h -19.42419 z m 87.05,86.26451 V 613.9121 h -19.4242 v 86.26451 z m 17.26613,-85.54516 c 7.19435,-1.4379 16.54677,-1.4379 26.61855,-1.4379 16.54677,0 27.33871,2.875 35.25242,9.34516 8.63306,6.47016 14.3879,17.25322 14.3879,32.34919 0,16.53387 -5.75484,28.03549 -14.3879,35.2242 -9.35323,7.90806 -23.02178,11.50241 -39.56855,11.50241 -10.07177,0 -17.26613,-0.71935 -22.30242,-1.4379 z m 19.42419,71.16774 c 1.43952,0.71855 4.31694,0.71855 6.475,0.71855 17.98548,0 29.49678,-9.34516 29.49678,-30.19193 0,-17.97178 -10.07178,-27.31694 -27.33871,-27.31694 -2.73549,0 -4.89355,0.28871 -6.47339,0.5 h -8.1e-4 c -0.91209,0.12258 -1.63225,0.21855 -2.15887,0.21855 z m 89.20887,-22.28468 h 30.93549 v -15.81532 h -31.65484 v -17.97177 h 33.8129 V 613.9121 h -53.2371 v 86.26451 h 55.39597 V 684.36129 H 582.0129 Z"
     fill="#334166" />
</svg>
