<svg
   xmlns:dc="http://purl.org/dc/elements/1.1/"
   xmlns:cc="http://creativecommons.org/ns#"
   xmlns:rdf="http://www.w3.org/1999/02/22-rdf-syntax-ns#"
   xmlns:svg="http://www.w3.org/2000/svg"
   xmlns="http://www.w3.org/2000/svg"
   xmlns:sodipodi="http://sodipodi.sourceforge.net/DTD/sodipodi-0.dtd"
   xmlns:inkscape="http://www.inkscape.org/namespaces/inkscape"
   inkscape:version="1.0 (4035a4f, 2020-05-01)"
   sodipodi:docname="Logo Fédération Française Sport Universitaire.svg"
   viewBox="0 0 600 418.11432"
   height="418.11432"
   width="600"
   xml:space="preserve"
   id="svg833"
   version="1.1"><metadata
     id="metadata839"><rdf:RDF><cc:Work
         rdf:about=""><dc:format>image/svg+xml</dc:format><dc:type
           rdf:resource="http://purl.org/dc/dcmitype/StillImage" /><dc:title></dc:title></cc:Work></rdf:RDF></metadata><defs
     id="defs837" /><sodipodi:namedview
     inkscape:current-layer="g841"
     inkscape:window-maximized="0"
     inkscape:window-y="0"
     inkscape:window-x="0"
     inkscape:cy="199.98347"
     inkscape:cx="320.22235"
     inkscape:zoom="0.5376717"
     showgrid="false"
     id="namedview835"
     inkscape:window-height="900"
     inkscape:window-width="1440"
     inkscape:pageshadow="2"
     inkscape:pageopacity="0"
     guidetolerance="10"
     gridtolerance="10"
     objecttolerance="10"
     borderopacity="1"
     bordercolor="#666666"
     pagecolor="#ffffff" /><g
     transform="matrix(1.3333333,0,0,-1.3333333,-45.353865,483.17154)"
     inkscape:label="Logo Fédération Française Sport Universitaire"
     inkscape:groupmode="layer"
     id="g841"><g
       style="stroke-width:1.04567"
       transform="matrix(0.95632508,0,0,0.95632508,1.4856198,15.826858)"
       id="g1459"><path
         d="m 188.5574,299.96425 h 232.078 L 320.4614,86.7582 H 88.245401 Z"
         style="fill:#ffffff;fill-opacity:1;fill-rule:nonzero;stroke:none;stroke-width:1.04567"
         id="path1454"
         sodipodi:nodetypes="ccccc" /><path
         id="path877"
         style="fill:#d91920;fill-opacity:1;fill-rule:nonzero;stroke:none;stroke-width:1.04567"
         d="m 158.5574,299.96425 h 52.338 L 145.4724,165.2642 c -20.352,-47.977 2.909,-75.599 53.792,-75.599 50.882,0 100.313,1.452 143.928,90.135 0.687,0 60.732,120.164 60.578,120.164 h 46.865 L 350.4614,86.7582 H 58.2454 Z"
         sodipodi:nodetypes="cccscccccc" /><path
         id="path881"
         style="fill:#137bb0;fill-opacity:1;fill-rule:nonzero;stroke:none;stroke-width:1.04567"
         d="M 344.6457,299.96425 277.7727,165.7914 c -20.356,-31.985 -40.707,-34.891 -56.7,-34.891 -15.993,0 -24.715,15.993 -17.448,31.985 0,1.454 63.968,137.07885 63.968,137.07885 z"
         sodipodi:nodetypes="ccsccc" /></g><g
       style="stroke-width:1.04567"
       transform="matrix(0.95632508,0,0,0.95632508,1.4856198,15.826858)"
       id="g1450"><path
         id="path885"
         style="fill:#150f10;fill-opacity:1;fill-rule:nonzero;stroke:none;stroke-width:1.04567"
         d="m 53.7019,75.8515 h 8.351 l -0.885,-1.847 h -6.326 l -2.719,-5.667 h 5.844 l -0.874,-1.823 h -5.843 l -3.701,-7.716 h -2.025 z" /><path
         id="path889"
         style="fill:#150f10;fill-opacity:1;fill-rule:nonzero;stroke:none;stroke-width:1.04567"
         d="m 69.1443,66.7929 h -6.005 l -2.948,-6.148 h 6.718 l -0.885,-1.846 h -8.742 l 8.176,17.053 h 8.398 l -0.886,-1.847 h -6.373 l -2.584,-5.389 h 6.005 z m 5.844,12.955 -4.4,-2.986 h -1.633 l 3.594,2.986 z" /><path
         id="path901"
         style="fill:#150f10;fill-opacity:1;fill-rule:nonzero;stroke:none;stroke-width:1.04567"
         d="m 77.2215,75.6239 c 1.339,0.202 2.861,0.354 4.448,0.354 2.876,0 4.584,-0.708 5.275,-2.099 0.735,-1.394 0.583,-3.392 -0.741,-6.148 -1.335,-2.784 -3.231,-5.06 -5.41,-6.63 -2.236,-1.594 -5.041,-2.454 -8.055,-2.454 -1.45,0 -2.598,0.051 -3.561,0.203 z m -5.219,-15.105 c 0.457,-0.101 1.194,-0.101 1.976,-0.101 4.267,-0.025 7.865,2.632 10.072,7.237 1.977,4.072 1.107,6.577 -3.126,6.577 -1.035,0 -1.865,-0.1 -2.455,-0.227 z" /><path
         id="path905"
         style="fill:#150f10;fill-opacity:1;fill-rule:nonzero;stroke:none;stroke-width:1.04567"
         d="m 96.8914,66.7929 h -6.005 l -2.948,-6.148 h 6.718 l -0.886,-1.846 h -8.742 l 8.177,17.053 h 8.398 l -0.887,-1.847 h -6.373 l -2.584,-5.389 h 6.005 z m 5.844,12.955 -4.4,-2.986 h -1.633 l 3.593,2.986 z" /><path
         id="path917"
         style="fill:#150f10;fill-opacity:1;fill-rule:nonzero;stroke:none;stroke-width:1.04567"
         d="m 104.9783,75.5984 c 1.122,0.228 2.667,0.379 4.024,0.379 2.14,0 3.325,-0.455 3.83,-1.416 0.408,-0.733 0.309,-1.898 -0.334,-3.239 -1.068,-2.226 -3.094,-3.718 -4.996,-4.327 l -0.036,-0.076 c 0.954,-0.455 1.085,-1.67 0.626,-3.44 -0.634,-2.379 -1.053,-4.023 -1.071,-4.681 h -2.07 c -0.023,0.481 0.336,1.948 0.941,4.075 0.669,2.351 0.242,3.237 -1.539,3.313 h -1.887 l -3.543,-7.388 h -2.001 z m -1.711,-7.741 h 2.048 c 2.139,0 4.115,1.29 5.05,3.237 1.055,2.202 0.067,3.163 -2.05,3.163 -0.966,0 -1.682,-0.1 -2.075,-0.202 z" /><path
         id="path921"
         style="fill:#150f10;fill-opacity:1;fill-rule:nonzero;stroke:none;stroke-width:1.04567"
         d="m 115.0477,64.163 -4.184,-5.364 h -2.07 l 13.445,17.053 h 2.417 l -2.886,-17.053 h -2.14 l 0.916,5.364 z m 5.909,1.72 0.812,4.908 c 0.212,1.113 0.467,2.127 0.71,3.113 h -0.069 c -0.679,-0.986 -1.443,-2.051 -2.239,-3.088 l -3.885,-4.933 z" /><path
         id="path925"
         style="fill:#150f10;fill-opacity:1;fill-rule:nonzero;stroke:none;stroke-width:1.04567"
         d="m 133.0066,73.9794 h -4.716 l 0.898,1.872 h 11.48 l -0.898,-1.872 h -4.739 l -7.28,-15.181 h -2.024 z" /><path
         id="path929"
         style="fill:#150f10;fill-opacity:1;fill-rule:nonzero;stroke:none;stroke-width:1.04567"
         d="m 144.948,75.8515 -8.178,-17.053 h -2.024 l 8.178,17.053 z" /><path
         id="path941"
         style="fill:#150f10;fill-opacity:1;fill-rule:nonzero;stroke:none;stroke-width:1.04567"
         d="m 146.7371,58.5204 c -4.118,0 -5.297,3.492 -2.821,8.652 2.596,5.414 7.332,8.957 11.472,8.957 4.256,0 5.284,-3.568 2.858,-8.627 -2.804,-5.843 -7.552,-8.982 -11.486,-8.982 z m 0.953,1.796 c 3.176,0 6.511,3.214 8.366,7.086 1.626,3.389 1.715,6.931 -1.621,6.931 -3.336,0 -6.63,-3.415 -8.401,-7.109 -1.723,-3.593 -1.518,-6.908 1.634,-6.908 z" /><path
         id="path945"
         style="fill:#150f10;fill-opacity:1;fill-rule:nonzero;stroke:none;stroke-width:1.04567"
         d="m 157.2244,58.7987 8.177,17.053 h 2.21 l 0.808,-8.627 c 0.169,-2 0.241,-3.77 0.104,-5.54 l 0.081,0.024 c 0.908,2.277 1.856,4.351 3.118,6.984 l 3.434,7.159 h 1.886 l -8.177,-17.053 h -2.024 l -0.774,8.653 c -0.172,1.898 -0.273,3.845 -0.147,5.694 l -0.08,-0.026 c -0.917,-2.152 -1.876,-4.2 -3.235,-7.035 l -3.494,-7.286 z" /><path
         id="path949"
         style="fill:#150f10;fill-opacity:1;fill-rule:nonzero;stroke:none;stroke-width:1.04567"
         d="m 186.4988,75.8515 h 8.352 l -0.885,-1.847 h -6.327 l -2.719,-5.667 h 5.845 l -0.875,-1.823 h -5.843 l -3.699,-7.716 h -2.026 z" /><path
         id="path961"
         style="fill:#150f10;fill-opacity:1;fill-rule:nonzero;stroke:none;stroke-width:1.04567"
         d="m 198.158,75.5984 c 1.12,0.228 2.667,0.379 4.023,0.379 2.14,0 3.325,-0.455 3.831,-1.416 0.406,-0.733 0.308,-1.898 -0.334,-3.239 -1.068,-2.226 -3.095,-3.718 -4.998,-4.327 l -0.036,-0.076 c 0.956,-0.455 1.086,-1.67 0.629,-3.44 -0.635,-2.379 -1.055,-4.023 -1.071,-4.681 h -2.07 c -0.024,0.481 0.336,1.948 0.94,4.075 0.667,2.351 0.241,3.237 -1.541,3.313 h -1.886 l -3.543,-7.388 h -2.001 z m -1.712,-7.741 h 2.049 c 2.139,0 4.115,1.29 5.049,3.237 1.055,2.202 0.067,3.163 -2.049,3.163 -0.966,0 -1.682,-0.1 -2.075,-0.202 z" /><path
         id="path965"
         style="fill:#150f10;fill-opacity:1;fill-rule:nonzero;stroke:none;stroke-width:1.04567"
         d="m 208.2264,64.163 -4.182,-5.364 h -2.07 l 13.444,17.053 h 2.415 l -2.884,-17.053 h -2.139 l 0.914,5.364 z m 5.909,1.72 0.812,4.908 c 0.213,1.113 0.467,2.127 0.712,3.113 h -0.071 c -0.679,-0.986 -1.442,-2.051 -2.238,-3.088 l -3.885,-4.933 z" /><path
         id="path969"
         style="fill:#150f10;fill-opacity:1;fill-rule:nonzero;stroke:none;stroke-width:1.04567"
         d="m 217.7801,58.7987 8.177,17.053 h 2.209 l 0.809,-8.627 c 0.168,-2 0.239,-3.77 0.103,-5.54 l 0.082,0.024 c 0.906,2.277 1.856,4.351 3.118,6.984 l 3.434,7.159 h 1.886 l -8.178,-17.053 h -2.024 l -0.775,8.653 c -0.17,1.898 -0.271,3.845 -0.145,5.694 l -0.081,-0.026 c -0.916,-2.152 -1.877,-4.2 -3.235,-7.035 l -3.494,-7.286 z" /><path
         id="path973"
         style="fill:#150f10;fill-opacity:1;fill-rule:nonzero;stroke:none;stroke-width:1.04567"
         d="m 244.5603,59.33 c -0.893,-0.379 -2.538,-0.784 -4.529,-0.81 l -1.047,-0.986 c 0.812,-0.126 1.208,-0.834 0.747,-1.797 -0.691,-1.442 -2.084,-1.998 -3.351,-1.998 -0.598,0 -1.122,0.202 -1.38,0.43 l 0.867,1.087 c 0.259,-0.228 0.635,-0.354 1.071,-0.354 0.506,0 1.077,0.228 1.343,0.784 0.304,0.634 -0.264,0.938 -1.261,1.064 l 1.841,1.872 c -3.462,0.506 -4.746,3.441 -2.295,8.551 2.571,5.363 7.584,8.957 12.394,8.957 1.907,0 2.931,-0.455 3.316,-0.759 l -1.346,-1.796 c -0.563,0.404 -1.499,0.708 -2.789,0.708 -3.635,0 -7.275,-2.556 -9.423,-7.033 -2.012,-4.2 -1.102,-6.857 2.649,-6.857 1.218,0 2.617,0.278 3.629,0.708 z" /><path
         id="path977"
         style="fill:#150f10;fill-opacity:1;fill-rule:nonzero;stroke:none;stroke-width:1.04567"
         d="m 252.5623,64.163 -4.185,-5.364 h -2.07 l 13.446,17.053 h 2.416 l -2.885,-17.053 h -2.141 l 0.916,5.364 z m 5.909,1.72 0.812,4.908 c 0.211,1.113 0.468,2.127 0.71,3.113 h -0.07 c -0.678,-0.986 -1.443,-2.051 -2.238,-3.088 l -3.884,-4.933 z" /><path
         id="path981"
         style="fill:#150f10;fill-opacity:1;fill-rule:nonzero;stroke:none;stroke-width:1.04567"
         d="m 272.2938,75.8515 -8.179,-17.053 h -2.023 l 8.177,17.053 z" /><path
         id="path993"
         style="fill:#150f10;fill-opacity:1;fill-rule:nonzero;stroke:none;stroke-width:1.04567"
         d="m 269.199,61.4804 c 0.593,-0.633 1.651,-1.113 3.032,-1.113 2.047,0 3.801,1.163 4.639,2.91 0.752,1.568 0.373,2.504 -1.309,3.364 -2.045,1.014 -2.906,2.481 -1.765,4.857 1.275,2.659 4.22,4.631 7.236,4.631 1.563,0 2.543,-0.405 3.006,-0.835 l -1.416,-1.796 c -0.324,0.33 -1.129,0.81 -2.533,0.81 -2.117,0 -3.588,-1.39 -4.147,-2.557 -0.765,-1.592 -0.197,-2.377 1.506,-3.288 2.076,-1.137 2.733,-2.505 1.531,-5.008 -1.261,-2.633 -4.115,-4.935 -7.773,-4.935 -1.494,0 -2.885,0.506 -3.422,1.113 z" /><path
         id="path997"
         style="fill:#150f10;fill-opacity:1;fill-rule:nonzero;stroke:none;stroke-width:1.04567"
         d="m 291.9012,66.7929 h -6.006 l -2.947,-6.148 h 6.719 l -0.887,-1.846 h -8.742 l 8.177,17.053 h 8.397 l -0.887,-1.847 h -6.371 l -2.584,-5.389 h 6.004 z" /><path
         id="path1009"
         style="fill:#150f10;fill-opacity:1;fill-rule:nonzero;stroke:none;stroke-width:1.04567"
         d="m 42.0594,51.5741 c 1.34,0.202 2.861,0.354 4.45,0.354 2.875,0 4.583,-0.708 5.274,-2.101 0.735,-1.391 0.582,-3.389 -0.741,-6.148 -1.334,-2.782 -3.232,-5.06 -5.41,-6.627 -2.237,-1.594 -5.042,-2.455 -8.055,-2.455 -1.45,0 -2.599,0.051 -3.562,0.204 z m -5.218,-15.104 c 0.458,-0.102 1.194,-0.102 1.976,-0.102 4.266,-0.025 7.864,2.631 10.073,7.235 1.977,4.074 1.107,6.578 -3.127,6.578 -1.035,0 -1.866,-0.101 -2.456,-0.227 z" /><path
         id="path1013"
         style="fill:#150f10;fill-opacity:1;fill-rule:nonzero;stroke:none;stroke-width:1.04567"
         d="m 59.5164,51.8017 -4.854,-10.12 c -1.82,-3.796 -1.054,-5.414 1.016,-5.414 2.278,0 4.574,1.669 6.37,5.414 l 4.853,10.12 h 2.024 l -4.78,-9.969 c -2.512,-5.237 -6.038,-7.361 -9.398,-7.361 -3.173,0 -4.62,1.973 -2.073,7.286 l 4.817,10.044 z" /><path
         id="path1017"
         style="fill:#150f10;fill-opacity:1;fill-rule:nonzero;stroke:none;stroke-width:1.04567"
         d="m 70.1326,37.4306 c 0.595,-0.632 1.652,-1.113 3.033,-1.113 2.047,0 3.802,1.164 4.639,2.909 0.753,1.569 0.373,2.506 -1.308,3.365 -2.046,1.012 -2.906,2.479 -1.766,4.858 1.274,2.656 4.222,4.63 7.236,4.63 1.565,0 2.543,-0.404 3.004,-0.834 l -1.414,-1.797 c -0.325,0.329 -1.13,0.809 -2.532,0.809 -2.117,0 -3.589,-1.392 -4.148,-2.555 -0.764,-1.593 -0.197,-2.378 1.505,-3.29 2.077,-1.137 2.733,-2.504 1.532,-5.009 -1.261,-2.63 -4.114,-4.932 -7.771,-4.932 -1.496,0 -2.887,0.506 -3.424,1.112 z" /><path
         id="path1021"
         style="fill:#150f10;fill-opacity:1;fill-rule:nonzero;stroke:none;stroke-width:1.04567"
         d="m 88.5115,51.5741 c 1.063,0.202 2.4,0.354 4.012,0.354 1.977,0 3.184,-0.505 3.668,-1.417 0.464,-0.81 0.398,-2.049 -0.33,-3.567 -0.741,-1.543 -1.737,-2.759 -2.966,-3.643 -1.654,-1.241 -3.682,-1.873 -5.638,-1.873 -0.598,0 -1.138,0.026 -1.537,0.152 l -3.275,-6.83 h -2.002 z m -1.93,-8.198 c 0.376,-0.126 0.927,-0.177 1.572,-0.177 2.438,0 4.518,1.315 5.623,3.618 1.091,2.277 0.164,3.364 -2.045,3.364 -0.874,0 -1.59,-0.101 -1.971,-0.176 z" /><path
         id="path1025"
         style="fill:#150f10;fill-opacity:1;fill-rule:nonzero;stroke:none;stroke-width:1.04567"
         d="m 98.6004,34.4716 c -4.118,0 -5.297,3.49 -2.822,8.651 2.597,5.415 7.332,8.957 11.472,8.957 4.257,0 5.284,-3.567 2.858,-8.627 -2.803,-5.845 -7.552,-8.981 -11.486,-8.981 z m 0.953,1.796 c 3.175,0 6.51,3.212 8.366,7.083 1.626,3.392 1.714,6.933 -1.621,6.933 -3.336,0 -6.631,-3.415 -8.402,-7.11 -1.723,-3.592 -1.518,-6.906 1.635,-6.906 z" /><path
         id="path1029"
         style="fill:#150f10;fill-opacity:1;fill-rule:nonzero;stroke:none;stroke-width:1.04567"
         d="m 116.5906,51.5487 c 1.121,0.228 2.667,0.38 4.024,0.38 2.139,0 3.325,-0.455 3.83,-1.418 0.407,-0.733 0.309,-1.898 -0.334,-3.237 -1.068,-2.228 -3.094,-3.72 -4.996,-4.328 l -0.037,-0.076 c 0.955,-0.455 1.086,-1.669 0.628,-3.441 -0.635,-2.377 -1.055,-4.022 -1.071,-4.679 h -2.07 c -0.024,0.481 0.336,1.947 0.94,4.072 0.669,2.354 0.241,3.239 -1.539,3.315 h -1.887 l -3.542,-7.387 h -2.002 z m -1.711,-7.742 h 2.047 c 2.141,0 4.117,1.289 5.051,3.238 1.054,2.201 0.066,3.162 -2.05,3.162 -0.967,0 -1.682,-0.101 -2.075,-0.202 z" /><path
         id="path1033"
         style="fill:#150f10;fill-opacity:1;fill-rule:nonzero;stroke:none;stroke-width:1.04567"
         d="m 131.2518,49.9286 h -4.717 l 0.899,1.873 h 11.479 l -0.897,-1.873 h -4.74 l -7.279,-15.179 h -2.024 z" /><path
         id="path1045"
         style="fill:#150f10;fill-opacity:1;fill-rule:nonzero;stroke:none;stroke-width:1.04567"
         d="m 147.5184,51.8017 -4.853,-10.12 c -1.82,-3.796 -1.055,-5.414 1.015,-5.414 2.277,0 4.573,1.669 6.369,5.414 l 4.854,10.12 h 2.024 l -4.78,-9.969 c -2.511,-5.237 -6.038,-7.361 -9.397,-7.361 -3.175,0 -4.622,1.973 -2.073,7.286 l 4.816,10.044 z" /><path
         id="path1049"
         style="fill:#150f10;fill-opacity:1;fill-rule:nonzero;stroke:none;stroke-width:1.04567"
         d="m 152.2254,34.7499 8.177,17.052 h 2.209 l 0.808,-8.628 c 0.169,-1.998 0.241,-3.771 0.104,-5.541 l 0.081,0.025 c 0.908,2.279 1.857,4.353 3.118,6.983 l 3.435,7.161 h 1.886 l -8.177,-17.052 h -2.025 l -0.774,8.651 c -0.171,1.899 -0.272,3.847 -0.146,5.693 l -0.081,-0.026 c -0.916,-2.149 -1.876,-4.2 -3.234,-7.032 l -3.495,-7.286 z" /><path
         id="path1053"
         style="fill:#150f10;fill-opacity:1;fill-rule:nonzero;stroke:none;stroke-width:1.04567"
         d="m 177.5428,51.8017 -8.178,-17.052 h -2.024 l 8.178,17.052 z" /><path
         id="path1065"
         style="fill:#150f10;fill-opacity:1;fill-rule:nonzero;stroke:none;stroke-width:1.04567"
         d="m 176.2674,34.7499 3.094,17.052 h 2.185 l -1.613,-8.401 c -0.461,-2.301 -0.893,-4.402 -1.4,-6.375 h 0.046 c 1.383,1.973 3.035,4.124 4.816,6.35 l 6.662,8.426 h 2.141 l -13.723,-17.052 z" /><path
         id="path1069"
         style="fill:#150f10;fill-opacity:1;fill-rule:nonzero;stroke:none;stroke-width:1.04567"
         d="m 197.5408,42.7441 h -6.005 l -2.949,-6.148 h 6.719 l -0.885,-1.846 h -8.742 l 8.176,17.052 h 8.397 l -0.885,-1.848 h -6.374 l -2.583,-5.39 h 6.005 z" /><path
         id="path1081"
         style="fill:#150f10;fill-opacity:1;fill-rule:nonzero;stroke:none;stroke-width:1.04567"
         d="m 205.076,51.5487 c 1.122,0.228 2.666,0.38 4.025,0.38 2.139,0 3.324,-0.455 3.829,-1.418 0.408,-0.733 0.31,-1.898 -0.334,-3.237 -1.067,-2.228 -3.094,-3.72 -4.997,-4.328 l -0.036,-0.076 c 0.954,-0.455 1.086,-1.669 0.627,-3.441 -0.634,-2.377 -1.055,-4.022 -1.071,-4.679 h -2.07 c -0.022,0.481 0.336,1.947 0.941,4.072 0.668,2.354 0.242,3.239 -1.539,3.315 h -1.887 l -3.542,-7.387 h -2.002 z m -1.711,-7.742 h 2.047 c 2.141,0 4.117,1.289 5.051,3.238 1.055,2.201 0.067,3.162 -2.05,3.162 -0.967,0 -1.683,-0.101 -2.076,-0.202 z" /><path
         id="path1085"
         style="fill:#150f10;fill-opacity:1;fill-rule:nonzero;stroke:none;stroke-width:1.04567"
         d="m 210.4305,37.4306 c 0.595,-0.632 1.653,-1.113 3.033,-1.113 2.047,0 3.801,1.164 4.638,2.909 0.753,1.569 0.374,2.506 -1.308,3.365 -2.046,1.012 -2.905,2.479 -1.765,4.858 1.273,2.656 4.222,4.63 7.235,4.63 1.564,0 2.544,-0.404 3.005,-0.834 l -1.413,-1.797 c -0.325,0.329 -1.131,0.809 -2.534,0.809 -2.117,0 -3.588,-1.392 -4.147,-2.555 -0.764,-1.593 -0.197,-2.378 1.505,-3.29 2.077,-1.137 2.733,-2.504 1.532,-5.009 -1.261,-2.63 -4.114,-4.932 -7.772,-4.932 -1.496,0 -2.887,0.506 -3.423,1.112 z" /><path
         id="path1089"
         style="fill:#150f10;fill-opacity:1;fill-rule:nonzero;stroke:none;stroke-width:1.04567"
         d="m 230.9187,51.8017 -8.177,-17.052 h -2.024 l 8.178,17.052 z" /><path
         id="path1093"
         style="fill:#150f10;fill-opacity:1;fill-rule:nonzero;stroke:none;stroke-width:1.04567"
         d="m 236.4637,49.9286 h -4.716 l 0.899,1.873 h 11.478 l -0.897,-1.873 h -4.739 l -7.281,-15.179 h -2.023 z" /><path
         id="path1105"
         style="fill:#150f10;fill-opacity:1;fill-rule:nonzero;stroke:none;stroke-width:1.04567"
         d="m 241.0291,40.1132 -4.183,-5.363 h -2.072 l 13.446,17.052 h 2.416 l -2.885,-17.052 h -2.141 l 0.916,5.363 z m 5.909,1.72 0.811,4.909 c 0.214,1.112 0.469,2.124 0.71,3.11 h -0.069 c -0.678,-0.986 -1.441,-2.049 -2.238,-3.085 l -3.884,-4.934 z" /><path
         id="path1109"
         style="fill:#150f10;fill-opacity:1;fill-rule:nonzero;stroke:none;stroke-width:1.04567"
         d="m 260.2079,51.8017 -8.177,-17.052 h -2.025 l 8.179,17.052 z" /><path
         id="path1121"
         style="fill:#150f10;fill-opacity:1;fill-rule:nonzero;stroke:none;stroke-width:1.04567"
         d="m 263.5839,51.5487 c 1.122,0.228 2.667,0.38 4.023,0.38 2.141,0 3.326,-0.455 3.831,-1.418 0.409,-0.733 0.309,-1.898 -0.334,-3.237 -1.068,-2.228 -3.095,-3.72 -4.996,-4.328 l -0.036,-0.076 c 0.953,-0.455 1.085,-1.669 0.627,-3.441 -0.635,-2.377 -1.055,-4.022 -1.071,-4.679 h -2.071 c -0.024,0.481 0.337,1.947 0.941,4.072 0.669,2.354 0.242,3.239 -1.539,3.315 h -1.886 l -3.543,-7.387 h -2.002 z m -1.711,-7.742 h 2.047 c 2.14,0 4.116,1.289 5.05,3.238 1.056,2.201 0.068,3.162 -2.049,3.162 -0.967,0 -1.682,-0.101 -2.075,-0.202 z" /><path
         id="path1125"
         style="fill:#150f10;fill-opacity:1;fill-rule:nonzero;stroke:none;stroke-width:1.04567"
         d="m 279.7469,42.7441 h -6.006 l -2.947,-6.148 h 6.719 l -0.887,-1.846 h -8.744 l 8.179,17.052 h 8.397 l -0.885,-1.848 h -6.375 l -2.582,-5.39 h 6.002 z" /></g><g
       style="stroke-width:1.04567"
       transform="matrix(0.95632508,0,0,0.95632508,1.4856198,15.826858)"
       id="g1409"><path
         id="path1129"
         style="fill:#150f10;fill-opacity:1;fill-rule:nonzero;stroke:none;stroke-width:1.04567"
         d="m 175.4695,339.4114 h 16.101 l -2.864,-5.516 h -10.189 l -3.688,-7.086 h 9.579 l -2.831,-5.426 h -9.54 l -6.247,-12.199 h -5.87 z" /><path
         id="path1133"
         style="fill:#150f10;fill-opacity:1;fill-rule:nonzero;stroke:none;stroke-width:1.04567"
         d="m 196.3016,339.4114 h 16.1 l -2.864,-5.516 h -10.188 l -3.688,-7.086 h 9.58 l -2.834,-5.426 h -9.539 l -6.247,-12.199 h -5.868 z" /><path
         id="path1145"
         style="fill:#150f10;fill-opacity:1;fill-rule:nonzero;stroke:none;stroke-width:1.04567"
         d="m 212.7,316.1819 c 1.263,-1.076 3.253,-1.931 5.82,-1.931 2.243,0 4.721,1.169 5.518,3.499 0.598,1.749 -0.217,2.828 -2.238,4.305 -2.313,1.706 -4.257,4.127 -2.923,8.029 2.084,6.099 8.169,9.823 14.16,9.823 3.302,0 4.982,-0.81 5.935,-1.482 l -3.673,-5.38 c -0.716,0.537 -2.355,1.344 -4.651,1.299 -2.731,0 -4.665,-1.479 -5.232,-3.139 -0.614,-1.794 0.69,-2.87 2.522,-4.304 2.685,-1.93 3.92,-4.396 2.678,-8.029 -2.299,-6.727 -8.535,-10.182 -14.606,-10.182 -3.777,0.048 -6.181,1.122 -7.089,2.155 z" /><path
         id="path1149"
         style="fill:#150f10;fill-opacity:1;fill-rule:nonzero;stroke:none;stroke-width:1.04567"
         d="m 245.1443,338.8295 c 1.92,0.491 4.742,0.763 7.393,0.763 2.485,0 5.144,-0.448 6.606,-2.02 1.416,-1.345 1.779,-3.498 0.784,-6.412 -1.288,-3.769 -3.873,-6.683 -6.604,-8.477 -2.904,-1.929 -6.43,-2.825 -9.773,-2.825 -0.977,0 -1.749,0.134 -2.342,0.179 l -5.585,-10.853 h -5.749 z m -1.232,-13.501 c 0.607,-0.133 1.188,-0.224 2.208,-0.224 3.504,0 6.67,2.468 7.712,5.518 0.981,2.87 -0.573,3.811 -2.853,3.811 -1.102,0 -1.947,-0.089 -2.468,-0.178 z" /><path
         id="path1153"
         style="fill:#150f10;fill-opacity:1;fill-rule:nonzero;stroke:none;stroke-width:1.04567"
         d="m 264.8055,308.6899 c -7.135,0 -9.229,5.561 -6.82,12.603 1.853,5.427 5.511,10.766 9.832,14.218 3.504,2.736 7.617,4.396 11.611,4.396 7.256,0 9.246,-5.384 6.779,-12.604 -1.871,-5.471 -5.463,-10.853 -9.709,-14.217 -3.478,-2.781 -7.536,-4.396 -11.653,-4.396 z m 2.653,5.384 c 4.732,0 10.462,7.354 12.41,13.051 1.287,3.765 1.306,7.398 -3.014,7.398 -4.932,0 -10.635,-7.265 -12.597,-13.006 -1.456,-4.26 -0.791,-7.443 3.162,-7.443 z" /><path
         id="path1157"
         style="fill:#150f10;fill-opacity:1;fill-rule:nonzero;stroke:none;stroke-width:1.04567"
         d="m 296.7118,338.8295 c 2.002,0.491 4.867,0.763 7.598,0.763 2.607,0 5.162,-0.406 6.617,-1.749 1.396,-1.167 2.015,-3.05 1.049,-5.877 -1.534,-4.484 -5.174,-7.264 -9.149,-8.52 l -0.047,-0.134 c 1.358,-0.807 1.414,-2.782 0.725,-5.517 -0.799,-3.409 -1.943,-7.355 -1.883,-8.611 h -6.033 c 0.031,0.806 0.635,3.41 1.662,7.131 0.971,3.677 0.213,4.799 -2.111,4.799 h -1.791 l -6.117,-11.93 h -5.79 z m -0.811,-12.872 h 2.405 c 3.179,0 6.222,2.108 7.234,5.067 0.828,2.423 -0.64,3.498 -3.004,3.498 -1.099,0 -1.824,-0.089 -2.359,-0.224 z" /><path
         id="path1161"
         style="fill:#150f10;fill-opacity:1;fill-rule:nonzero;stroke:none;stroke-width:1.04567"
         d="m 322.2509,333.7602 h -7.254 l 2.949,5.651 h 20.422 l -2.91,-5.651 h -7.336 l -12.639,-24.575 h -5.873 z" /></g><g
       style="stroke-width:1.04567"
       transform="matrix(0.95632508,0,0,0.95632508,1.4856198,15.826858)"
       id="g1470"><path
         id="path853"
         style="fill:#137bb0;fill-opacity:1;fill-rule:nonzero;stroke:none;stroke-width:1.04567"
         d="m 313.5848,300.889 71.225,47.174 c 0,0 1.849,0.925 2.927,2.621 1.85,0.926 4.008,0.924 4.934,0.31 0.926,-0.619 2.775,-5.244 2.775,-5.244 l 30.061,-45.786 h -5.086 l -31.912,44.4 -6.631,-3.854 -56.73,-39.621 z" /><path
         id="path857"
         style="fill:#137bb0;fill-opacity:1;fill-rule:nonzero;stroke:none;stroke-width:1.04567"
         d="m 343.1844,327.2513 41.625,28.674 c 0,0 6.475,4.625 10.174,-1.85 0,0 -4.162,2.313 -9.713,-1.387 z" /><path
         id="path861"
         style="fill:#137bb0;fill-opacity:1;fill-rule:nonzero;stroke:none;stroke-width:1.04567"
         d="m 387.1199,361.475 c 0,0 6.477,2.313 8.326,-0.462 1.85,-2.775 4.625,-7.862 4.625,-7.862 0,0 -4.625,8.324 -12.951,8.324" /><path
         id="path865"
         style="fill:#137bb0;fill-opacity:1;fill-rule:nonzero;stroke:none;stroke-width:1.04567"
         d="m 474.0692,225.0414 0.461,-2.774 h 3.238 c 0,0 1.387,0.924 -3.699,2.774" /><path
         id="path869"
         style="fill:#137bb0;fill-opacity:1;fill-rule:nonzero;stroke:none;stroke-width:1.04567"
         d="m 294.4677,87.2206 23.125,-36.384 c 0,0 4.935,-5.55 7.711,-5.24 2.775,0.309 8.014,5.242 11.406,7.709 3.393,2.466 140.287,94.038 143.371,96.506 3.084,2.466 -0.617,2.466 -5.24,-1.543 -4.625,-4.009 -10.176,-3.7 -10.176,-3.7 0,0 -9.25,-6.783 -12.334,-7.708 -3.084,-0.926 -8.939,-4.009 -11.099,-5.55 -2.159,-1.541 -6.475,-5.241 -6.475,-5.241 l -9.559,-4.009 -3.699,-3.392 -12.949,-6.474 -3.701,-0.925 -0.924,-1.85 -5.551,-1.234 -4.931,-2.157 c 0,0 -1.543,-1.852 -3.393,-3.393 -1.85,-1.541 -4.623,-1.541 -2.158,3.084 2.467,4.625 -5.24,-2.774 -6.783,-6.475 -1.543,-3.7 -6.166,-10.482 -8.631,-12.64 -2.469,-2.159 -7.401,-3.084 -7.401,-3.084 0,0 -0.617,-1.541 -1.849,-2.466 -1.237,-0.925 -6.785,-2.159 -6.785,-2.159 0,0 -1.233,-2.159 -3.082,-3.7 -1.852,-1.541 -20.659,-13.872 -23.125,-15.415 -2.469,-1.543 -4.01,-2.778 -7.094,2.157 -3.082,4.933 -14.904,25.254 -14.904,25.254 z" /><path
         id="path873"
         style="fill:#137bb0;fill-opacity:1;fill-rule:nonzero;stroke:none;stroke-width:1.04567"
         d="m 301.5613,64.0956 c 0,0 0.924,-2.313 2.313,-4.625 1.386,-2.313 4.162,-3.699 4.162,-3.699 0,0 -0.926,3.699 -2.776,5.55 -1.849,1.849 -3.699,2.774 -3.699,2.774" /><path
         id="path1165"
         style="fill:#137bb0;fill-opacity:1;fill-rule:nonzero;stroke:none;stroke-width:1.04567"
         d="m 440.8759,278.6088 22.432,-38.215 -24.924,32.678 z" /><path
         id="path1177"
         style="fill:#137bb0;fill-opacity:1;fill-rule:nonzero;stroke:none;stroke-width:1.04567"
         d="m 483.7978,210.7641 8.031,-8.307 -1.662,-0.554 c 0,0 0.002,-2.77 -1.385,-1.939 -1.384,0.831 -5.537,6.647 -5.537,6.647 0,0 4.43,-5.541 5.26,-4.432 0.832,1.109 -4.707,8.585 -4.707,8.585" /><path
         id="path1181"
         style="fill:#137bb0;fill-opacity:1;fill-rule:nonzero;stroke:none;stroke-width:1.04567"
         d="m 497.9207,190.5497 6.646,-9.416 -1.109,4.43 -1.107,2.769 z" /></g></g></svg>
